<?xml version="1.0" encoding="UTF-8" standalone="no"?>
<!DOCTYPE svg PUBLIC "-//W3C//DTD SVG 1.1//EN" "http://www.w3.org/Graphics/SVG/1.1/DTD/svg11.dtd">
<svg width="100%" height="100%" viewBox="0 0 800 800" version="1.1" xmlns="http://www.w3.org/2000/svg" xmlns:xlink="http://www.w3.org/1999/xlink" xml:space="preserve" xmlns:serif="http://www.serif.com/" style="fill-rule:evenodd;clip-rule:evenodd;stroke-linejoin:round;stroke-miterlimit:2;">
    <g transform="matrix(1.5625,0,0,1.5625,0,0)">
        <path d="M287.12,28.969L402.401,28.969C424.329,28.969 442.102,46.743 442.102,68.67L442.102,463.678C442.102,485.606 424.328,503.379 402.401,503.379L110.057,503.379C88.141,503.379 70.356,485.605 70.356,463.678L70.356,68.67C70.356,46.742 88.141,28.969 110.057,28.969L225.349,28.969" style="fill:rgb(255,131,249);fill-rule:nonzero;"/>
    </g>
    <g transform="matrix(1.5625,0,0,1.5625,0,0)">
        <path d="M96.909,463.678L96.909,68.67C96.909,46.742 114.694,28.969 136.61,28.969L110.057,28.969C88.141,28.969 70.356,46.743 70.356,68.67L70.356,463.678C70.356,485.606 88.141,503.379 110.057,503.379L136.61,503.379C114.694,503.38 96.909,485.606 96.909,463.678Z" style="fill:rgb(124,69,255);fill-rule:nonzero;"/>
    </g>
    <g transform="matrix(1.5625,0,0,1.5625,0,0)">
        <path d="M331.354,90.339L380.733,90.339L380.733,442.01L131.725,442.01L131.725,90.339L181.104,90.339" style="fill:rgb(200,255,248);fill-rule:nonzero;"/>
    </g>
    <g transform="matrix(1.5625,0,0,1.5625,0,0)">
        <g>
            <path d="M341.2,121.022L171.261,121.022L189.428,64.377L323.035,64.377L341.2,121.022Z" style="fill:rgb(48,75,255);fill-rule:nonzero;"/>
            <path d="M256.231,9.083C237.492,9.083 222.301,24.274 222.301,43.013L222.301,64.376L290.162,64.376L290.162,43.013C290.162,24.274 274.97,9.083 256.231,9.083Z" style="fill:rgb(48,75,255);fill-rule:nonzero;"/>
        </g>
    </g>
    <g transform="matrix(1.5625,0,0,1.5625,0,0)">
        <path d="M402.172,19.886L292.114,19.886C284.516,7.945 271.174,0 256.002,0C240.831,0 227.488,7.945 219.891,19.886L109.828,19.886C83.055,19.886 61.275,41.666 61.275,68.439L61.275,357.813C61.275,362.701 65.238,366.664 70.126,366.664C75.014,366.664 78.977,362.701 78.977,357.813L78.977,68.439C78.977,51.428 92.816,37.589 109.827,37.589L213.545,37.589C213.337,39.293 213.218,41.023 213.218,42.782L213.218,55.293L189.197,55.293C185.35,55.293 181.944,57.778 180.768,61.442L174.414,81.256L131.495,81.256C126.607,81.256 122.644,85.219 122.644,90.107L122.644,441.779C122.644,446.667 126.607,450.63 131.495,450.63L380.502,450.63C385.39,450.63 389.353,446.667 389.353,441.779L389.353,165.443C389.353,160.555 385.39,156.592 380.502,156.592C375.614,156.592 371.651,160.555 371.651,165.443L371.651,432.927L140.348,432.927L140.348,98.959L168.739,98.959L162.604,118.087C161.74,120.779 162.215,123.722 163.882,126.006C165.548,128.291 168.206,129.641 171.033,129.641L340.971,129.641C343.799,129.641 346.455,128.29 348.122,126.006C349.788,123.722 350.263,120.779 349.4,118.087L343.265,98.959L371.652,98.959L371.652,137.119C371.652,142.007 375.615,145.97 380.503,145.97C385.391,145.97 389.354,142.007 389.354,137.119L389.354,90.107C389.354,85.219 385.391,81.256 380.503,81.256L337.587,81.256L331.233,61.442C330.059,57.779 326.652,55.293 322.804,55.293L298.782,55.293L298.782,42.782C298.782,41.024 298.663,39.293 298.455,37.589L402.17,37.589C419.181,37.589 433.02,51.428 433.02,68.439L433.02,463.447C433.02,480.458 419.181,494.297 402.17,494.297L109.828,494.297C92.817,494.297 78.978,480.458 78.978,463.447L78.978,387.318C78.978,382.43 75.015,378.467 70.127,378.467C65.239,378.467 61.276,382.43 61.276,387.318L61.276,463.447C61.276,490.219 83.056,512 109.829,512L402.173,512C428.945,512 450.726,490.22 450.726,463.447L450.726,68.439C450.725,41.666 428.944,19.886 402.172,19.886ZM328.837,111.939L183.167,111.939L195.657,72.995L316.349,72.995L328.837,111.939ZM230.923,55.293L230.923,42.782C230.923,28.954 242.174,17.703 256.002,17.703C269.83,17.703 281.081,28.954 281.081,42.782L281.081,55.293L230.923,55.293Z" style="fill-rule:nonzero;"/>
    </g>
    <g transform="matrix(1.5625,0,0,1.5625,0,0)">
        <path d="M333.005,182.747L316.193,182.747C311.305,182.747 307.342,186.71 307.342,191.598C307.342,196.486 311.305,200.449 316.193,200.449L333.005,200.449C337.893,200.449 341.856,196.486 341.856,191.598C341.856,186.71 337.893,182.747 333.005,182.747Z" style="fill-rule:nonzero;"/>
    </g>
    <g transform="matrix(1.5625,0,0,1.5625,0,0)">
        <path d="M178.999,200.45L286.69,200.45C291.578,200.45 295.541,196.487 295.541,191.599C295.541,186.711 291.578,182.748 286.69,182.748L178.999,182.748C174.111,182.748 170.148,186.711 170.148,191.599C170.148,196.487 174.11,200.45 178.999,200.45Z" style="fill-rule:nonzero;"/>
    </g>
    <g transform="matrix(1.5625,0,0,1.5625,0,0)">
        <path d="M333.005,295.447L222.958,295.447C218.07,295.447 214.107,299.41 214.107,304.298C214.107,309.186 218.07,313.149 222.958,313.149L333.004,313.149C337.892,313.149 341.855,309.186 341.855,304.298C341.855,299.41 337.893,295.447 333.005,295.447Z" style="fill-rule:nonzero;"/>
    </g>
    <g transform="matrix(1.5625,0,0,1.5625,0,0)">
        <path d="M178.999,313.149L196.406,313.149C201.294,313.149 205.257,309.186 205.257,304.298C205.257,299.41 201.294,295.447 196.406,295.447L178.999,295.447C174.111,295.447 170.148,299.41 170.148,304.298C170.148,309.186 174.11,313.149 178.999,313.149Z" style="fill-rule:nonzero;"/>
    </g>
    <g transform="matrix(1.5625,0,0,1.5625,0,0)">
        <path d="M333.005,239.097L178.999,239.097C174.111,239.097 170.148,243.06 170.148,247.948C170.148,252.836 174.111,256.799 178.999,256.799L333.006,256.799C337.894,256.799 341.857,252.836 341.857,247.948C341.857,243.06 337.893,239.097 333.005,239.097Z" style="fill-rule:nonzero;"/>
    </g>
    <g transform="matrix(1.5625,0,0,1.5625,0,0)">
        <path d="M178.999,369.5L333.006,369.5C337.894,369.5 341.857,365.537 341.857,360.649C341.857,355.761 337.894,351.798 333.006,351.798L178.999,351.798C174.111,351.798 170.148,355.761 170.148,360.649C170.148,365.537 174.11,369.5 178.999,369.5Z" style="fill-rule:nonzero;"/>
    </g>
</svg>
